<?xml version="1.0" encoding="UTF-8" standalone="no"?>
<!-- Created with Inkscape (http://www.inkscape.org/) -->
<svg width="3840" height="2160" viewBox="0 0 1016 571.5" version="1.1" id="svg1" xml:space="preserve" sodipodi:docname="kali-metal-dark.svg" inkscape:export-filename="kali-metal-dark.png" inkscape:export-xdpi="96" inkscape:export-ydpi="96" inkscape:version="1.3.2 (091e20ef0f, 2023-11-25, custom)" xmlns:inkscape="http://www.inkscape.org/namespaces/inkscape" xmlns:sodipodi="http://sodipodi.sourceforge.net/DTD/sodipodi-0.dtd" xmlns:xlink="http://www.w3.org/1999/xlink" xmlns="http://www.w3.org/2000/svg" xmlns:svg="http://www.w3.org/2000/svg"><sodipodi:namedview id="namedview1" pagecolor="#ffffff" bordercolor="#000000" borderopacity="0.25" inkscape:showpageshadow="2" inkscape:pageopacity="0.0" inkscape:pagecheckerboard="0" inkscape:deskcolor="#d1d1d1" inkscape:zoom="0.35911458" inkscape:cx="724.0029" inkscape:cy="715.64902" inkscape:window-width="3840" inkscape:window-height="2090" inkscape:window-x="1080" inkscape:window-y="34" inkscape:window-maximized="1" inkscape:current-layer="svg1"/><defs id="defs1"><linearGradient id="linearGradient28"><stop style="stop-color:#367bf0;stop-opacity:1" offset="0.36576888" id="stop27"/><stop style="stop-color:#23bac2;stop-opacity:1" offset="0.75195521" id="stop28"/></linearGradient><linearGradient id="linearGradient26"><stop style="stop-color:#367bf0;stop-opacity:1" offset="0.2" id="stop23"/><stop style="stop-color:#a300ed;stop-opacity:1;" offset="0.41999999" id="stop24"/><stop style="stop-color:#fd4949;stop-opacity:1" offset="0.75" id="stop25"/><stop style="stop-color:#fd7d00;stop-opacity:1" offset="0.875" id="stop26"/></linearGradient><linearGradient id="linearGradient7"><stop style="stop-color:#367bf0;stop-opacity:1" offset="0.36576888" id="stop1"/><stop style="stop-color:#4fc8ce;stop-opacity:1" offset="0.75195521" id="stop2"/></linearGradient><linearGradient id="linearGradient12"><stop style="stop-color:#367bf0;stop-opacity:1" offset="0.25" id="stop9"/><stop style="stop-color:#8c42ab;stop-opacity:1" offset="0.5" id="stop10"/><stop style="stop-color:#fd3535;stop-opacity:1" offset="0.75" id="stop11"/><stop style="stop-color:#fd7d00;stop-opacity:1" offset="0.875" id="stop12"/></linearGradient><linearGradient id="linearGradient2"><stop style="stop-color:#367bf0;stop-opacity:1" offset="0.25" id="stop8"/><stop style="stop-color:#8c42ab;stop-opacity:1" offset="0.5" id="stop4"/><stop style="stop-color:#fd4949;stop-opacity:1" offset="0.75" id="stop5"/><stop style="stop-color:#fd7d00;stop-opacity:1" offset="0.875" id="stop6"/></linearGradient><linearGradient xlink:href="#linearGradient2" id="linearGradient3" x1="528.79907" y1="293.34177" x2="528.79907" y2="95.598122" gradientUnits="userSpaceOnUse" gradientTransform="translate(-28.945283,55.418086)"/><linearGradient xlink:href="#linearGradient12" id="linearGradient8" gradientUnits="userSpaceOnUse" x1="528.79907" y1="311.88321" x2="528.79907" y2="95.598122" gradientTransform="translate(487.62607,651.50954)"/><filter style="color-interpolation-filters:sRGB" id="filter12" x="-0.061531022" y="-0.082750579" width="1.123062" height="1.1655012"><feGaussianBlur stdDeviation="6.6952619" id="feGaussianBlur12"/></filter><filter style="color-interpolation-filters:sRGB" id="filter13" x="-0.065383953" y="-0.08793223" width="1.1307679" height="1.1758645"><feGaussianBlur stdDeviation="7.1145039" id="feGaussianBlur13"/></filter><linearGradient xlink:href="#linearGradient7" id="linearGradient14" x1="547.85602" y1="355.12073" x2="547.85602" y2="401.93652" gradientUnits="userSpaceOnUse" gradientTransform="matrix(1.3756992,0,0,1.3756992,-190.85522,-84.25143)"/><linearGradient xlink:href="#linearGradient2" id="linearGradient19" gradientUnits="userSpaceOnUse" x1="528.79907" y1="293.34177" x2="528.79907" y2="95.598122" gradientTransform="translate(-28.945283,55.418086)"/><filter style="color-interpolation-filters:sRGB" id="filter52" x="-0.03087638" y="-0.083137505" width="1.0617528" height="1.2009156"><feFlood result="flood" in="SourceGraphic" flood-opacity="0.388235" flood-color="rgb(0,0,0)" id="feFlood51"/><feGaussianBlur result="blur" in="SourceGraphic" stdDeviation="1.5000001" id="feGaussianBlur51"/><feOffset result="offset" in="blur" dx="0.000000" dy="1.500000" id="feOffset51"/><feComposite result="comp1" operator="out" in="flood" in2="offset" id="feComposite51"/><feComposite result="comp2" operator="atop" in="comp1" in2="SourceGraphic" id="feComposite52"/></filter><filter style="color-interpolation-filters:sRGB" id="filter14" x="-0.0082279537" y="-0.022158323" width="1.0164559" height="1.0443166"><feGaussianBlur stdDeviation="0.39972175" id="feGaussianBlur14"/></filter><filter style="color-interpolation-filters:sRGB" id="filter40" x="-0.0091902337" y="-0.012359573" width="1.0183805" height="1.0272941"><feFlood result="flood" in="SourceGraphic" flood-opacity="0.200000" flood-color="rgb(0,0,0)" id="feFlood39"/><feGaussianBlur result="blur" in="SourceGraphic" stdDeviation="1.000000" id="feGaussianBlur39"/><feOffset result="offset" in="blur" dx="0.000000" dy="0.500000" id="feOffset39"/><feComposite result="comp1" operator="out" in="flood" in2="offset" id="feComposite39"/><feComposite result="comp2" operator="atop" in="comp1" in2="SourceGraphic" id="feComposite40"/></filter><linearGradient xlink:href="#linearGradient26" id="linearGradient40" gradientUnits="userSpaceOnUse" gradientTransform="translate(-28.945283,55.418086)" x1="563.43878" y1="296.71042" x2="528.79907" y2="95.598122"/><filter style="color-interpolation-filters:sRGB" id="filter87" x="0" y="0" width="1" height="1"><feTurbulence type="fractalNoise" baseFrequency="100 100" numOctaves="5" seed="1" result="turbulence" id="feTurbulence86"/><feComposite in="SourceGraphic" in2="turbulence" operator="in" result="composite1" id="feComposite86"/><feColorMatrix values="1 0 0 0 0 0 1 0 0 0 0 0 1 0 0 0 0 0 2.5 -1 " result="color" id="feColorMatrix86"/><feFlood flood-opacity="0.101961" flood-color="rgb(0,0,0)" result="flood" id="feFlood86"/><feMerge result="merge" id="feMerge87"><feMergeNode in="flood" id="feMergeNode86"/><feMergeNode in="color" id="feMergeNode87"/></feMerge><feComposite in2="SourceGraphic" operator="in" result="composite2" id="feComposite87"/></filter><filter style="color-interpolation-filters:sRGB" id="filter17" x="-0.018495907" y="-0.049979882" width="1.0369918" height="1.0999598"><feGaussianBlur stdDeviation="0.89854999" id="feGaussianBlur17"/></filter><filter style="color-interpolation-filters:sRGB" id="filter19" x="-0.03087638" y="-0.083137505" width="1.0617528" height="1.2009156"><feFlood result="flood" in="SourceGraphic" flood-opacity="0.388235" flood-color="rgb(0,0,0)" id="feFlood17"/><feGaussianBlur result="blur" in="SourceGraphic" stdDeviation="1.5000001" id="feGaussianBlur18"/><feOffset result="offset" in="blur" dx="0.000000" dy="1.500000" id="feOffset18"/><feComposite result="comp1" operator="out" in="flood" in2="offset" id="feComposite18"/><feComposite result="comp2" operator="atop" in="comp1" in2="SourceGraphic" id="feComposite19"/></filter><filter style="color-interpolation-filters:sRGB" id="filter19-6" x="-0.030876379" y="-0.083137505" width="1.0617528" height="1.2009156"><feFlood result="flood" in="SourceGraphic" flood-opacity="0.388235" flood-color="rgb(0,0,0)" id="feFlood17-0"/><feGaussianBlur result="blur" in="SourceGraphic" stdDeviation="1.5000001" id="feGaussianBlur18-6"/><feOffset result="offset" in="blur" dx="0.000000" dy="1.500000" id="feOffset18-2"/><feComposite result="comp1" operator="out" in="flood" in2="offset" id="feComposite18-6"/><feComposite result="comp2" operator="atop" in="comp1" in2="SourceGraphic" id="feComposite19-1"/></filter><filter style="color-interpolation-filters:sRGB" id="filter52-8" x="-0.030876379" y="-0.083137505" width="1.0617528" height="1.2009156"><feFlood result="flood" in="SourceGraphic" flood-opacity="0.388235" flood-color="rgb(0,0,0)" id="feFlood51-7"/><feGaussianBlur result="blur" in="SourceGraphic" stdDeviation="1.5000001" id="feGaussianBlur51-9"/><feOffset result="offset" in="blur" dx="0.000000" dy="1.500000" id="feOffset51-2"/><feComposite result="comp1" operator="out" in="flood" in2="offset" id="feComposite51-0"/><feComposite result="comp2" operator="atop" in="comp1" in2="SourceGraphic" id="feComposite52-2"/></filter><filter style="color-interpolation-filters:sRGB" id="filter17-3" x="-0.018495906" y="-0.04997988" width="1.0369918" height="1.0999599"><feGaussianBlur stdDeviation="0.89854999" id="feGaussianBlur17-7"/></filter><filter style="color-interpolation-filters:sRGB" id="filter13-8" x="-0.065383956" y="-0.087932229" width="1.1307679" height="1.1758645"><feGaussianBlur stdDeviation="7.1145039" id="feGaussianBlur13-9"/></filter><filter style="color-interpolation-filters:sRGB" id="filter12-7" x="-0.079114594" y="-0.106398" width="1.1582292" height="1.212796"><feGaussianBlur stdDeviation="8.6085496" id="feGaussianBlur12-3"/></filter><filter style="color-interpolation-filters:sRGB" id="filter40-9" x="-0.0091902344" y="-0.012359573" width="1.0183805" height="1.0272942"><feFlood result="flood" in="SourceGraphic" flood-opacity="0.200000" flood-color="rgb(0,0,0)" id="feFlood39-4"/><feGaussianBlur result="blur" in="SourceGraphic" stdDeviation="1.000000" id="feGaussianBlur39-7"/><feOffset result="offset" in="blur" dx="0.000000" dy="0.500000" id="feOffset39-8"/><feComposite result="comp1" operator="out" in="flood" in2="offset" id="feComposite39-4"/><feComposite result="comp2" operator="atop" in="comp1" in2="SourceGraphic" id="feComposite40-5"/></filter><linearGradient xlink:href="#linearGradient28" id="linearGradient20" gradientUnits="userSpaceOnUse" gradientTransform="matrix(1.3756992,0,0,1.3756992,-190.85522,-84.25143)" x1="547.85602" y1="355.12073" x2="547.85602" y2="401.93652"/><linearGradient xlink:href="#linearGradient2" id="linearGradient21" gradientUnits="userSpaceOnUse" gradientTransform="translate(997.05468,55.418102)" x1="528.79907" y1="293.34177" x2="528.79907" y2="95.598122"/><linearGradient xlink:href="#linearGradient2" id="linearGradient22" gradientUnits="userSpaceOnUse" gradientTransform="translate(997.05468,55.418102)" x1="528.79907" y1="293.34177" x2="528.79907" y2="95.598122"/><linearGradient xlink:href="#linearGradient26" id="linearGradient23" gradientUnits="userSpaceOnUse" gradientTransform="translate(997.05468,55.418102)" x1="563.43878" y1="296.71042" x2="528.79907" y2="95.598122"/><linearGradient id="linearGradient7-3"><stop style="stop-color:#367bf0;stop-opacity:1" offset="0.25" id="stop1-7"/><stop style="stop-color:#8c42ab;stop-opacity:1" offset="0.60000002" id="stop2-4"/><stop style="stop-color:#fd3535;stop-opacity:1" offset="0.75" id="stop3"/><stop style="stop-color:#fd7d00;stop-opacity:1" offset="0.875" id="stop7"/></linearGradient><filter style="color-interpolation-filters:sRGB" id="filter12-0" x="-0.015992626" y="-0.021507836" width="1.0319853" height="1.0430157"><feGaussianBlur stdDeviation="1.7401763" id="feGaussianBlur12-7"/></filter><filter style="color-interpolation-filters:sRGB" id="filter13-86" x="-0.065383948" y="-0.08793223" width="1.1307679" height="1.1758645"><feGaussianBlur stdDeviation="7.1145039" id="feGaussianBlur13-8"/></filter><linearGradient xlink:href="#linearGradient7-3" id="linearGradient14-8" x1="547.85602" y1="350.39462" x2="547.85602" y2="413.77658" gradientUnits="userSpaceOnUse" gradientTransform="matrix(1.3756992,0,0,1.3756992,-190.85522,-84.25143)"/><filter style="color-interpolation-filters:sRGB" id="filter52-4" x="-0.03087638" y="-0.083137505" width="1.0617528" height="1.2009156"><feFlood result="flood" in="SourceGraphic" flood-opacity="0.388235" flood-color="rgb(0,0,0)" id="feFlood51-3"/><feGaussianBlur result="blur" in="SourceGraphic" stdDeviation="1.5000001" id="feGaussianBlur51-1"/><feOffset result="offset" in="blur" dx="0.000000" dy="1.500000" id="feOffset51-4"/><feComposite result="comp1" operator="out" in="flood" in2="offset" id="feComposite51-9"/><feComposite result="comp2" operator="atop" in="comp1" in2="SourceGraphic" id="feComposite52-20"/></filter><filter style="color-interpolation-filters:sRGB" id="filter14-6" x="-0.0082279538" y="-0.022158323" width="1.0164559" height="1.0443166"><feGaussianBlur stdDeviation="0.39972175" id="feGaussianBlur14-8"/></filter><filter style="color-interpolation-filters:sRGB" id="filter40-92" x="-0.009190233" y="-0.012359573" width="1.0183805" height="1.0272941"><feFlood result="flood" in="SourceGraphic" flood-opacity="0.200000" flood-color="rgb(0,0,0)" id="feFlood39-6"/><feGaussianBlur result="blur" in="SourceGraphic" stdDeviation="1.000000" id="feGaussianBlur39-6"/><feOffset result="offset" in="blur" dx="0.000000" dy="0.500000" id="feOffset39-4"/><feComposite result="comp1" operator="out" in="flood" in2="offset" id="feComposite39-9"/><feComposite result="comp2" operator="atop" in="comp1" in2="SourceGraphic" id="feComposite40-50"/></filter><filter style="color-interpolation-filters:sRGB" id="filter87-4" x="0" y="0" width="1" height="1"><feTurbulence type="fractalNoise" baseFrequency="100 100" numOctaves="5" seed="1" result="turbulence" id="feTurbulence86-8"/><feComposite in="SourceGraphic" in2="turbulence" operator="in" result="composite1" id="feComposite86-7"/><feColorMatrix values="1 0 0 0 0 0 1 0 0 0 0 0 1 0 0 0 0 0 2.5 -1 " result="color" id="feColorMatrix86-1"/><feFlood flood-opacity="0.101961" flood-color="rgb(0,0,0)" result="flood" id="feFlood86-7"/><feMerge result="merge" id="feMerge87-2"><feMergeNode in="flood" id="feMergeNode86-7"/><feMergeNode in="color" id="feMergeNode87-2"/></feMerge><feComposite in2="SourceGraphic" operator="in" result="composite2" id="feComposite87-2"/></filter><linearGradient xlink:href="#linearGradient2" id="linearGradient24" gradientUnits="userSpaceOnUse" gradientTransform="translate(487.62607,649.39287)" x1="528.79907" y1="293.34177" x2="528.79907" y2="95.598122"/><linearGradient xlink:href="#linearGradient2" id="linearGradient25" gradientUnits="userSpaceOnUse" gradientTransform="translate(487.62607,649.39287)" x1="528.79907" y1="293.34177" x2="528.79907" y2="95.598122"/><linearGradient xlink:href="#linearGradient26" id="linearGradient27" gradientUnits="userSpaceOnUse" gradientTransform="translate(487.62607,649.39287)" x1="563.43878" y1="296.71042" x2="528.79907" y2="95.598122"/><filter style="color-interpolation-filters:sRGB" id="filter1" x="-0.0057385773" y="-0.010201915" width="1.0114772" height="1.0204038"><feGaussianBlur stdDeviation="2.54" id="feGaussianBlur1"/></filter><filter style="color-interpolation-filters:sRGB" id="filter2" x="-0.051427099" y="-0.13847222" width="1.1028542" height="1.2769444"><feGaussianBlur stdDeviation="2.4983711" id="feGaussianBlur2"/></filter><linearGradient xlink:href="#linearGradient28" id="linearGradient20-7" gradientUnits="userSpaceOnUse" gradientTransform="matrix(1.3756992,0,0,1.3756992,-190.85522,-84.25143)" x1="547.85602" y1="355.12073" x2="547.85602" y2="395.22153"/><filter style="color-interpolation-filters:sRGB" id="filter52-8-5" x="-0.03087638" y="-0.083137505" width="1.0617528" height="1.2009156"><feFlood result="flood" in="SourceGraphic" flood-opacity="0.388235" flood-color="rgb(0,0,0)" id="feFlood51-7-6"/><feGaussianBlur result="blur" in="SourceGraphic" stdDeviation="1.5000001" id="feGaussianBlur51-9-2"/><feOffset result="offset" in="blur" dx="0.000000" dy="1.500000" id="feOffset51-2-9"/><feComposite result="comp1" operator="out" in="flood" in2="offset" id="feComposite51-0-1"/><feComposite result="comp2" operator="atop" in="comp1" in2="SourceGraphic" id="feComposite52-2-2"/></filter><filter style="color-interpolation-filters:sRGB" id="filter17-3-7" x="-0.018495907" y="-0.049979882" width="1.0369918" height="1.0999598"><feGaussianBlur stdDeviation="0.89854999" id="feGaussianBlur17-7-0"/></filter></defs><g id="g1" style="mix-blend-mode:normal;filter:url(#filter1)"><rect style="opacity:1;fill:#272a34;fill-opacity:1;stroke:none;stroke-width:15.875;stroke-linecap:round;stroke-linejoin:round;stroke-miterlimit:16.8;paint-order:stroke markers fill" id="rect1" width="1062.2842" height="597.53485" x="-23.142109" y="-13.017436"/><path d="m 452.17276,199.29523 c 0,0 -21.44517,-1.427 -57.96443,10.00008 -37.21614,11.64503 -58.32399,28.15073 -58.32399,28.15073 0,0 55.46981,-30.97109 118.07982,-32.73089 z m 79.98982,33.67375 2.78829,-0.18176 c 0,0 -15.97336,-19.38019 -46.54696,-28.82062 17.18614,6.98613 32.14514,16.24258 43.75787,29.00126 z m 4.56302,8.05231 c 0.4286,-0.74291 1.81203,2.36104 2.8629,3.66519 0.0794,0.26033 0.11906,0.41907 -0.4921,0.29367 -0.0794,-0.26749 -0.14286,-0.34527 -0.14286,-0.34527 0,0 -1.47074,-0.87498 -1.92157,-1.49574 -0.45241,-0.62068 -0.53178,-1.70639 -0.30955,-2.11809 z m 37.52092,92.25378 c 0,0 3.39072,-38.93014 -57.77395,-47.90563 -7.75214,-1.13737 -17.556,-2.01283 -27.47179,-2.03792 -49.02332,0.64846 -50.80996,-56.54084 -13.87004,-59.42835 15.30982,-1.26327 33.59049,6.99534 51.4616,15.31768 -0.0794,2.21952 0,4.19188 1.48344,6.01447 1.45724,1.82203 7.05764,3.80987 8.84666,4.83654 1.78902,1.02705 7.52117,4.67152 11.03411,9.24367 0.76197,-1.42494 7.12353,-5.56587 7.12353,-5.56587 0,0 -1.52391,0.0318 -5.06941,-1.29193 -3.54549,-1.32509 -7.75373,-5.33425 -7.85294,-5.56586 -0.0952,-0.23176 -0.16668,-0.59608 0.66671,-0.76196 0.62703,-0.5294 -0.79529,-2.2527 -1.42469,-2.88187 -0.62704,-0.62941 -4.83765,-7.78539 -4.93687,-7.95128 -0.10318,-0.16589 -0.13493,-0.33097 -0.42861,-0.5302 -0.92783,-0.29844 -5.00352,0.43098 -5.00352,0.43098 0,0 -6.26791,-3.07847 -8.42837,-9.71552 0,1.16254 -1.07469,2.43183 0,5.10258 -3.2677,-1.38248 -6.07504,-3.74035 -8.28869,-9.56702 -1.31835,3.31404 0,5.42117 0,5.42117 0,0 -7.69579,-2.15039 -8.92762,-9.24765 -1.35088,3.18595 0,5.10227 0,5.10227 0,0 -12.54533,-6.54618 -33.39206,-6.6411 -13.95654,-1.28026 -16.86231,-25.83231 -15.56935,-29.96514 0,0 -20.13079,-10.60949 -59.75822,-15.29673 -39.62742,-4.68771 -72.12735,-0.70641 -72.12735,-0.70641 0,0 70.18515,-3.36825 126.41057,19.39488 1.91204,8.54894 7.66165,22.78726 10.7587,29.63123 -8.86173,6.12679 -18.85451,11.88799 -20.41018,32.32135 -1.55567,20.43257 16.01146,38.40511 37.79555,38.95951 20.68559,1.10191 34.97789,1.25835 52.30133,10.23946 16.53531,9.14287 30.09341,37.0024 31.43478,62.05767 1.4493,-18.59021 -5.52738,-58.56741 -38.08128,-70.70551 45.50086,7.96263 49.50351,41.69376 49.50351,41.69376 z M 451.10126,196.24264 449.46384,190.9617 c 0,0 -27.01462,-4.79725 -63.33625,-2.21547 -36.32162,2.58177 -72.99408,15.29633 -72.99408,15.29633 0,0 75.03787,-18.88127 137.96696,-7.80016" style="opacity:0.7;fill:url(#linearGradient19);fill-opacity:1;stroke-width:2.10001;paint-order:stroke fill markers;filter:url(#filter13)" id="path12"/><path d="m 452.17276,201.41191 c 0,0 -21.44517,-1.427 -57.96443,10.00008 -37.21614,11.64503 -58.32399,28.15073 -58.32399,28.15073 0,0 55.46981,-30.97109 118.07982,-32.73089 z m 79.98982,33.67375 2.78829,-0.18176 c 0,0 -15.97336,-19.38019 -46.54696,-28.82062 17.18614,6.98613 32.14514,16.24258 43.75787,29.00126 z m 4.56302,8.05231 c 0.4286,-0.74291 1.81203,2.36104 2.8629,3.66519 0.0794,0.26033 0.11906,0.41907 -0.4921,0.29367 -0.0794,-0.26749 -0.14286,-0.34527 -0.14286,-0.34527 0,0 -1.47074,-0.87498 -1.92157,-1.49574 -0.45241,-0.62068 -0.53178,-1.70639 -0.30955,-2.11809 z m 37.52092,92.25378 c 0,0 3.39072,-38.93014 -57.77395,-47.90563 -7.75214,-1.13737 -17.556,-2.01283 -27.47179,-2.03792 -49.02332,0.64846 -50.80996,-56.54084 -13.87004,-59.42835 15.30982,-1.26327 33.59049,6.99534 51.4616,15.31768 -0.0794,2.21952 0,4.19188 1.48344,6.01447 1.45724,1.82203 7.05764,3.80987 8.84666,4.83654 1.78902,1.02705 7.52117,4.67152 11.03411,9.24367 0.76197,-1.42494 7.12353,-5.56587 7.12353,-5.56587 0,0 -1.52391,0.0318 -5.06941,-1.29193 -3.54549,-1.32509 -7.75373,-5.33425 -7.85294,-5.56586 -0.0952,-0.23176 -0.16668,-0.59608 0.66671,-0.76196 0.62703,-0.5294 -0.79529,-2.2527 -1.42469,-2.88187 -0.62704,-0.62941 -4.83765,-7.78539 -4.93687,-7.95128 -0.10318,-0.16589 -0.13493,-0.33097 -0.42861,-0.5302 -0.92783,-0.29844 -5.00352,0.43098 -5.00352,0.43098 0,0 -6.26791,-3.07847 -8.42837,-9.71552 0,1.16254 -1.07469,2.43183 0,5.10258 -3.2677,-1.38248 -6.07504,-3.74035 -8.28869,-9.56702 -1.31835,3.31404 0,5.42117 0,5.42117 0,0 -7.69579,-2.15039 -8.92762,-9.24765 -1.35088,3.18595 0,5.10227 0,5.10227 0,0 -12.54533,-6.54618 -33.39206,-6.6411 -13.95654,-1.28026 -16.86231,-25.83231 -15.56935,-29.96514 0,0 -20.13079,-10.60949 -59.75822,-15.29673 -39.62742,-4.68771 -72.12735,-0.70641 -72.12735,-0.70641 0,0 70.18515,-3.36825 126.41057,19.39488 1.91204,8.54894 7.66165,22.78726 10.7587,29.63123 -8.86173,6.12679 -18.85451,11.88799 -20.41018,32.32135 -1.55567,20.43257 16.01146,38.40511 37.79555,38.95951 20.68559,1.10191 34.97789,1.25835 52.30133,10.23946 16.53531,9.14287 30.09341,37.0024 31.43478,62.05767 1.4493,-18.59021 -5.52738,-58.56741 -38.08128,-70.70551 45.50086,7.96263 49.50351,41.69376 49.50351,41.69376 z m -123.14526,-137.03243 -1.63742,-5.28094 c 0,0 -27.01462,-4.79725 -63.33625,-2.21547 -36.32162,2.58177 -72.99408,15.29633 -72.99408,15.29633 0,0 75.03787,-18.88127 137.96696,-7.80016" style="opacity:1;fill:#000000;fill-opacity:1;stroke-width:2.10001;paint-order:stroke fill markers;filter:url(#filter12)" id="path8"/></g><path d="m 452.17276,199.29523 c 0,0 -21.44517,-1.427 -57.96443,10.00008 -37.21614,11.64503 -58.32399,28.15073 -58.32399,28.15073 0,0 55.46981,-30.97109 118.07982,-32.73089 z m 79.98982,33.67375 2.78829,-0.18176 c 0,0 -15.97336,-19.38019 -46.54696,-28.82062 17.18614,6.98613 32.14514,16.24258 43.75787,29.00126 z m 4.56302,8.05231 c 0.4286,-0.74291 1.81203,2.36104 2.8629,3.66519 0.0794,0.26033 0.11906,0.41907 -0.4921,0.29367 -0.0794,-0.26749 -0.14286,-0.34527 -0.14286,-0.34527 0,0 -1.47074,-0.87498 -1.92157,-1.49574 -0.45241,-0.62068 -0.53178,-1.70639 -0.30955,-2.11809 z m 37.52092,92.25378 c 0,0 3.39072,-38.93014 -57.77395,-47.90563 -7.75214,-1.13737 -17.556,-2.01283 -27.47179,-2.03792 -49.02332,0.64846 -50.80996,-56.54084 -13.87004,-59.42835 15.30982,-1.26327 33.59049,6.99534 51.4616,15.31768 -0.0794,2.21952 0,4.19188 1.48344,6.01447 1.45724,1.82203 7.05764,3.80987 8.84666,4.83654 1.78902,1.02705 7.52117,4.67152 11.03411,9.24367 0.76197,-1.42494 7.12353,-5.56587 7.12353,-5.56587 0,0 -1.52391,0.0318 -5.06941,-1.29193 -3.54549,-1.32509 -7.75373,-5.33425 -7.85294,-5.56586 -0.0952,-0.23176 -0.16668,-0.59608 0.66671,-0.76196 0.62703,-0.5294 -0.79529,-2.2527 -1.42469,-2.88187 -0.62704,-0.62941 -4.83765,-7.78539 -4.93687,-7.95128 -0.10318,-0.16589 -0.13493,-0.33097 -0.42861,-0.5302 -0.92783,-0.29844 -5.00352,0.43098 -5.00352,0.43098 0,0 -6.26791,-3.07847 -8.42837,-9.71552 0,1.16254 -1.07469,2.43183 0,5.10258 -3.2677,-1.38248 -6.07504,-3.74035 -8.28869,-9.56702 -1.31835,3.31404 0,5.42117 0,5.42117 0,0 -7.69579,-2.15039 -8.92762,-9.24765 -1.35088,3.18595 0,5.10227 0,5.10227 0,0 -12.54533,-6.54618 -33.39206,-6.6411 -13.95654,-1.28026 -16.86231,-25.83231 -15.56935,-29.96514 0,0 -20.13079,-10.60949 -59.75822,-15.29673 -39.62742,-4.68771 -72.12735,-0.70641 -72.12735,-0.70641 0,0 70.18515,-3.36825 126.41057,19.39488 1.91204,8.54894 7.66165,22.78726 10.7587,29.63123 -8.86173,6.12679 -18.85451,11.88799 -20.41018,32.32135 -1.55567,20.43257 16.01146,38.40511 37.79555,38.95951 20.68559,1.10191 34.97789,1.25835 52.30133,10.23946 16.53531,9.14287 30.09341,37.0024 31.43478,62.05767 1.4493,-18.59021 -5.52738,-58.56741 -38.08128,-70.70551 45.50086,7.96263 49.50351,41.69376 49.50351,41.69376 z M 451.10126,196.24264 449.46384,190.9617 c 0,0 -27.01462,-4.79725 -63.33625,-2.21547 -36.32162,2.58177 -72.99408,15.29633 -72.99408,15.29633 0,0 75.03787,-18.88127 137.96696,-7.80016" style="fill:url(#linearGradient3);fill-opacity:1;stroke-width:2.10001;paint-order:stroke fill markers" id="path6"/><path d="m 452.17276,199.29523 c 0,0 -21.44517,-1.427 -57.96443,10.00008 -37.21614,11.64503 -58.32399,28.15073 -58.32399,28.15073 0,0 55.46981,-30.97109 118.07982,-32.73089 z m 79.98982,33.67375 2.78829,-0.18176 c 0,0 -15.97336,-19.38019 -46.54696,-28.82062 17.18614,6.98613 32.14514,16.24258 43.75787,29.00126 z m 4.56302,8.05231 c 0.4286,-0.74291 1.81203,2.36104 2.8629,3.66519 0.0794,0.26033 0.11906,0.41907 -0.4921,0.29367 -0.0794,-0.26749 -0.14286,-0.34527 -0.14286,-0.34527 0,0 -1.47074,-0.87498 -1.92157,-1.49574 -0.45241,-0.62068 -0.53178,-1.70639 -0.30955,-2.11809 z m 37.52092,92.25378 c 0,0 3.39072,-38.93014 -57.77395,-47.90563 -7.75214,-1.13737 -17.556,-2.01283 -27.47179,-2.03792 -49.02332,0.64846 -50.80996,-56.54084 -13.87004,-59.42835 15.30982,-1.26327 33.59049,6.99534 51.4616,15.31768 -0.0794,2.21952 0,4.19188 1.48344,6.01447 1.45724,1.82203 7.05764,3.80987 8.84666,4.83654 1.78902,1.02705 7.52117,4.67152 11.03411,9.24367 0.76197,-1.42494 7.12353,-5.56587 7.12353,-5.56587 0,0 -1.52391,0.0318 -5.06941,-1.29193 -3.54549,-1.32509 -7.75373,-5.33425 -7.85294,-5.56586 -0.0952,-0.23176 -0.16668,-0.59608 0.66671,-0.76196 0.62703,-0.5294 -0.79529,-2.2527 -1.42469,-2.88187 -0.62704,-0.62941 -4.83765,-7.78539 -4.93687,-7.95128 -0.10318,-0.16589 -0.13493,-0.33097 -0.42861,-0.5302 -0.92783,-0.29844 -5.00352,0.43098 -5.00352,0.43098 0,0 -6.26791,-3.07847 -8.42837,-9.71552 0,1.16254 -1.07469,2.43183 0,5.10258 -3.2677,-1.38248 -6.07504,-3.74035 -8.28869,-9.56702 -1.31835,3.31404 0,5.42117 0,5.42117 0,0 -7.69579,-2.15039 -8.92762,-9.24765 -1.35088,3.18595 0,5.10227 0,5.10227 0,0 -12.54533,-6.54618 -33.39206,-6.6411 -13.95654,-1.28026 -16.86231,-25.83231 -15.56935,-29.96514 0,0 -20.13079,-10.60949 -59.75822,-15.29673 -39.62742,-4.68771 -72.12735,-0.70641 -72.12735,-0.70641 0,0 70.18515,-3.36825 126.41057,19.39488 1.91204,8.54894 7.66165,22.78726 10.7587,29.63123 -8.86173,6.12679 -18.85451,11.88799 -20.41018,32.32135 -1.55567,20.43257 16.01146,38.40511 37.79555,38.95951 20.68559,1.10191 34.97789,1.25835 52.30133,10.23946 16.53531,9.14287 30.09341,37.0024 31.43478,62.05767 1.4493,-18.59021 -5.52738,-58.56741 -38.08128,-70.70551 45.50086,7.96263 49.50351,41.69376 49.50351,41.69376 z M 451.10126,196.24264 449.46384,190.9617 c 0,0 -27.01462,-4.79725 -63.33625,-2.21547 -36.32162,2.58177 -72.99408,15.29633 -72.99408,15.29633 0,0 75.03787,-18.88127 137.96696,-7.80016" style="fill:url(#linearGradient40);fill-opacity:1;stroke-width:2.10001;paint-order:stroke fill markers;filter:url(#filter40)" id="path6-6"/><g id="layer1-6" transform="translate(0,-33.381417)"><path d="m 456.56775,449.68527 v -15.00982 c 0,-0.33855 0.0933,-0.57626 0.36452,-0.79091 1.13738,-0.91672 2.2594,-1.8595 3.38173,-2.79532 0.11198,-0.0847 0.22083,-0.16001 0.36046,-0.26387 0.12107,0.15949 0.22291,0.29003 0.31691,0.43344 1.90783,2.80547 3.81712,5.60794 5.72365,8.40872 2.33947,3.45035 4.68278,6.88487 7.01748,10.31912 0.12973,0.19934 0.24866,0.35048 0.53614,0.35048 2.4582,-0.008 4.91389,-0.008 7.36904,-0.008 0.0813,0 0.16492,-0.0275 0.2944,-0.0574 -5.43632,-8.06994 -10.85034,-16.08395 -16.28087,-24.14661 1.09254,-1.29271 2.14946,-2.53685 3.20518,-3.81178 1.05849,-1.24823 2.11319,-2.50074 3.16994,-3.75766 1.05518,-1.25374 2.10275,-2.50952 3.1607,-3.76453 1.05577,-1.25792 2.11318,-2.51293 3.15696,-3.76731 1.05103,-1.24491 2.09448,-2.49041 3.20857,-3.83343 h -0.6194 c -2.22463,0 -4.4481,0.0138 -6.67305,-0.008 -0.40905,0 -0.66699,0.12079 -0.93692,0.44441 -5.46532,6.597 -10.94403,13.19492 -16.42186,19.7842 -0.0726,0.0843 -0.1671,0.16002 -0.32495,0.30834 v -16.4109 c 0,-1.35834 0.023,-2.72075 0,-4.07976 H 449.703 v 43.03178 c 0.54564,0.0977 6.51601,0.0777 6.8841,-0.0234 v -0.54752 z m 36.69934,0.62282 c 0.0553,-0.16293 0.11858,-0.30287 0.16676,-0.4545 1.11074,-3.21641 2.22264,-6.42739 3.3364,-9.64654 0.18528,-0.51741 0.3695,-1.03769 0.53694,-1.55724 0.0663,-0.21686 0.17478,-0.33033 0.39914,-0.30287 0.0726,0.008 0.15716,0 0.231,0 h 15.67947 c 1.41737,4.0026 2.82492,7.97626 4.22721,11.9503 h 7.34006 c -5.2949,-14.46004 -10.56749,-28.86279 -15.82983,-43.26189 h -7.50557 c -0.0483,0.0944 -0.0836,0.16311 -0.10276,0.22761 -5.22575,14.28314 -10.4457,28.5722 -15.66966,42.85307 -0.023,0.0234 -0.023,0.0675 -0.023,0.0951 v 0.0457 c 0,0.0186 0.023,0.0275 0.027,0.049 h 7.17319 z m 6.34559,-18.5382 c 1.44552,-4.26639 2.91161,-8.51378 4.32015,-12.79158 0.56518,-1.71926 0.9912,-3.49264 1.47238,-5.24596 0.0406,-0.13289 0.0663,-0.2662 0.12106,-0.46621 0.0726,0.11308 0.12946,0.18208 0.14923,0.25656 1.14817,4.36971 2.71768,8.60926 4.1429,12.8957 0.59203,1.78353 1.20522,3.55621 1.80797,5.34055 0.0458,0.15968 0.0912,0.31938 0.14687,0.51682 h -12.31595 c 0.055,-0.18596 0.10153,-0.3459 0.1548,-0.50586 z m 37.16466,-21.22122 c 0,-1.11436 0.0403,-2.21854 -0.0315,-3.32229 h -6.78815 c -0.1146,0.53805 -0.0867,42.72937 0.023,43.08317 h 24.72514 v -5.99447 h -11.9269 c -1.00268,0 -2.01321,0.008 -3.01147,0 -0.98393,-0.008 -1.96377,0.0367 -2.98429,-0.0234 v -33.73676 z m 29.51591,-3.05708 c 0,-0.0669 0,-0.12244 -0.0227,-0.19175 0,-0.0186 -0.0227,-0.0234 -0.0227,-0.0366 0,-0.008 -0.0272,-0.0234 -0.0272,-0.0234 h -6.81136 v 43.05771 h 6.8475 c 0.0227,-0.0724 0.0402,-0.11088 0.0402,-0.15966 v -42.64662 z" fill="#ffffff" id="path1-60" style="display:inline;opacity:0.35;fill:#000000;fill-opacity:1;stroke-width:0.363988;filter:url(#filter2)"/><path d="m 456.56775,448.09776 v -15.00982 c 0,-0.33855 0.0933,-0.57626 0.36452,-0.79091 1.13738,-0.91672 2.2594,-1.8595 3.38173,-2.79532 0.11198,-0.0847 0.22083,-0.16001 0.36046,-0.26387 0.12107,0.15949 0.22291,0.29003 0.31691,0.43344 1.90783,2.80547 3.81712,5.60794 5.72365,8.40872 2.33947,3.45035 4.68278,6.88487 7.01748,10.31912 0.12973,0.19934 0.24866,0.35048 0.53614,0.35048 2.4582,-0.008 4.91389,-0.008 7.36904,-0.008 0.0813,0 0.16492,-0.0275 0.2944,-0.0574 -5.43632,-8.06994 -10.85034,-16.08395 -16.28087,-24.14661 1.09254,-1.29271 2.14946,-2.53685 3.20518,-3.81178 1.05849,-1.24823 2.11319,-2.50074 3.16994,-3.75766 1.05518,-1.25374 2.10275,-2.50952 3.1607,-3.76453 1.05577,-1.25792 2.11318,-2.51293 3.15696,-3.76731 1.05103,-1.24491 2.09448,-2.49041 3.20857,-3.83343 h -0.6194 c -2.22463,0 -4.4481,0.0138 -6.67305,-0.008 -0.40905,0 -0.66699,0.12079 -0.93692,0.44441 -5.46532,6.597 -10.94403,13.19492 -16.42186,19.7842 -0.0726,0.0843 -0.1671,0.16002 -0.32495,0.30834 v -16.4109 c 0,-1.35834 0.023,-2.72075 0,-4.07976 H 449.703 v 43.03178 c 0.54564,0.0977 6.51601,0.0777 6.8841,-0.0234 v -0.54752 z m 36.69934,0.62282 c 0.0553,-0.16293 0.11858,-0.30287 0.16676,-0.4545 1.11074,-3.21641 2.22264,-6.42739 3.3364,-9.64654 0.18528,-0.51741 0.3695,-1.03769 0.53694,-1.55724 0.0663,-0.21686 0.17478,-0.33033 0.39914,-0.30287 0.0726,0.008 0.15716,0 0.231,0 h 15.67947 c 1.41737,4.0026 2.82492,7.97626 4.22721,11.9503 h 7.34006 c -5.2949,-14.46004 -10.56749,-28.86279 -15.82983,-43.26189 h -7.50557 c -0.0483,0.0944 -0.0836,0.16311 -0.10276,0.22761 -5.22575,14.28314 -10.4457,28.5722 -15.66966,42.85307 -0.023,0.0234 -0.023,0.0675 -0.023,0.0951 v 0.0457 c 0,0.0186 0.023,0.0275 0.027,0.049 h 7.17319 z m 6.34559,-18.5382 c 1.44552,-4.26639 2.91161,-8.51378 4.32015,-12.79158 0.56518,-1.71926 0.9912,-3.49264 1.47238,-5.24596 0.0406,-0.13289 0.0663,-0.2662 0.12106,-0.46621 0.0726,0.11308 0.12946,0.18208 0.14923,0.25656 1.14817,4.36971 2.71768,8.60926 4.1429,12.8957 0.59203,1.78353 1.20522,3.55621 1.80797,5.34055 0.0458,0.15968 0.0912,0.31938 0.14687,0.51682 h -12.31595 c 0.055,-0.18596 0.10153,-0.3459 0.1548,-0.50586 z m 37.16466,-21.22122 c 0,-1.11436 0.0403,-2.21854 -0.0315,-3.32229 h -6.78815 c -0.1146,0.53805 -0.0867,42.72937 0.023,43.08317 h 24.72514 v -5.99447 h -11.9269 c -1.00268,0 -2.01321,0.008 -3.01147,0 -0.98393,-0.008 -1.96377,0.0367 -2.98429,-0.0234 v -33.73676 z m 29.51591,-3.05708 c 0,-0.0669 0,-0.12244 -0.0227,-0.19175 0,-0.0186 -0.0227,-0.0234 -0.0227,-0.0366 0,-0.008 -0.0272,-0.0234 -0.0272,-0.0234 h -6.81136 v 43.05771 h 6.8475 c 0.0227,-0.0724 0.0402,-0.11088 0.0402,-0.15966 v -42.64662 z" fill="#ffffff" id="path52-1" style="display:inline;fill:url(#linearGradient20-7);stroke-width:0.363988"/><path d="m 456.56775,448.09776 v -15.00982 c 0,-0.33855 0.0933,-0.57626 0.36452,-0.79091 1.13738,-0.91672 2.2594,-1.8595 3.38173,-2.79532 0.11198,-0.0847 0.22083,-0.16001 0.36046,-0.26387 0.12107,0.15949 0.22291,0.29003 0.31691,0.43344 1.90783,2.80547 3.81712,5.60794 5.72365,8.40872 2.33947,3.45035 4.68278,6.88487 7.01748,10.31912 0.12973,0.19934 0.24866,0.35048 0.53614,0.35048 2.4582,-0.008 4.91389,-0.008 7.36904,-0.008 0.0813,0 0.16492,-0.0275 0.2944,-0.0574 -5.43632,-8.06994 -10.85034,-16.08395 -16.28087,-24.14661 1.09254,-1.29271 2.14946,-2.53685 3.20518,-3.81178 1.05849,-1.24823 2.11319,-2.50074 3.16994,-3.75766 1.05518,-1.25374 2.10275,-2.50952 3.1607,-3.76453 1.05577,-1.25792 2.11318,-2.51293 3.15696,-3.76731 1.05103,-1.24491 2.09448,-2.49041 3.20857,-3.83343 h -0.6194 c -2.22463,0 -4.4481,0.0138 -6.67305,-0.008 -0.40905,0 -0.66699,0.12079 -0.93692,0.44441 -5.46532,6.597 -10.94403,13.19492 -16.42186,19.7842 -0.0726,0.0843 -0.1671,0.16002 -0.32495,0.30834 v -16.4109 c 0,-1.35834 0.023,-2.72075 0,-4.07976 H 449.703 v 43.03178 c 0.54564,0.0977 6.51601,0.0777 6.8841,-0.0234 v -0.54752 z m 36.69934,0.62282 c 0.0553,-0.16293 0.11858,-0.30287 0.16676,-0.4545 1.11074,-3.21641 2.22264,-6.42739 3.3364,-9.64654 0.18528,-0.51741 0.3695,-1.03769 0.53694,-1.55724 0.0663,-0.21686 0.17478,-0.33033 0.39914,-0.30287 0.0726,0.008 0.15716,0 0.231,0 h 15.67947 c 1.41737,4.0026 2.82492,7.97626 4.22721,11.9503 h 7.34006 c -5.2949,-14.46004 -10.56749,-28.86279 -15.82983,-43.26189 h -7.50557 c -0.0483,0.0944 -0.0836,0.16311 -0.10276,0.22761 -5.22575,14.28314 -10.4457,28.5722 -15.66966,42.85307 -0.023,0.0234 -0.023,0.0675 -0.023,0.0951 v 0.0457 c 0,0.0186 0.023,0.0275 0.027,0.049 h 7.17319 z m 6.34559,-18.5382 c 1.44552,-4.26639 2.91161,-8.51378 4.32015,-12.79158 0.56518,-1.71926 0.9912,-3.49264 1.47238,-5.24596 0.0406,-0.13289 0.0663,-0.2662 0.12106,-0.46621 0.0726,0.11308 0.12946,0.18208 0.14923,0.25656 1.14817,4.36971 2.71768,8.60926 4.1429,12.8957 0.59203,1.78353 1.20522,3.55621 1.80797,5.34055 0.0458,0.15968 0.0912,0.31938 0.14687,0.51682 h -12.31595 c 0.055,-0.18596 0.10153,-0.3459 0.1548,-0.50586 z m 37.16466,-21.22122 c 0,-1.11436 0.0403,-2.21854 -0.0315,-3.32229 h -6.78815 c -0.1146,0.53805 -0.0867,42.72937 0.023,43.08317 h 24.72514 v -5.99447 h -11.9269 c -1.00268,0 -2.01321,0.008 -3.01147,0 -0.98393,-0.008 -1.96377,0.0367 -2.98429,-0.0234 v -33.73676 z m 29.51591,-3.05708 c 0,-0.0669 0,-0.12244 -0.0227,-0.19175 0,-0.0186 -0.0227,-0.0234 -0.0227,-0.0366 0,-0.008 -0.0272,-0.0234 -0.0272,-0.0234 h -6.81136 v 43.05771 h 6.8475 c 0.0227,-0.0724 0.0402,-0.11088 0.0402,-0.15966 v -42.64662 z" fill="#ffffff" id="path1-6" style="display:inline;opacity:1;mix-blend-mode:multiply;fill:none;fill-opacity:1;stroke-width:0.363988;filter:url(#filter52-8-5)"/><path id="path16-3" style="display:inline;opacity:0.3;mix-blend-mode:overlay;fill:#ffffff;fill-opacity:1;stroke-width:0.363988;filter:url(#filter17-3-7)" d="m 480.22443,406.13076 c -0.6266,0.74963 -1.26444,1.5177 -1.8805,2.24741 -1.04378,1.25438 -2.10115,2.50929 -3.15691,3.76721 -1.05795,1.25501 -2.10536,2.51089 -3.16053,3.76463 -1.05675,1.25692 -2.11186,2.50916 -3.17035,3.75739 -1.05572,1.27493 -2.11244,2.51895 -3.20498,3.81166 0.19818,0.29422 0.39615,0.58698 0.59428,0.88108 0.88022,-1.04063 1.75068,-2.06664 2.6107,-3.10524 1.05849,-1.24823 2.1136,-2.50047 3.17035,-3.75739 1.05517,-1.25374 2.10258,-2.50962 3.16053,-3.76463 1.05576,-1.25792 2.11313,-2.51283 3.15691,-3.76721 1.05103,-1.24491 2.0945,-2.49086 3.20859,-3.83388 h -0.6196 c -0.2362,0 -0.47232,-0.001 -0.70849,-0.001 z m 56.55573,1.37201 c -9e-4,0.13357 -0.003,0.26613 -0.003,0.39998 l 0.006,0.006 v 0.709 c 0.004,-0.37213 -10e-4,-0.7444 -0.003,-1.11518 z m -31.25391,3.11764 c -0.0548,0.20001 -0.0803,0.33323 -0.12092,0.46612 -0.48118,1.75332 -0.90709,3.52642 -1.47227,5.24568 -1.40853,4.27779 -2.87463,8.52559 -4.32014,12.79198 h -10e-4 c -0.0533,0.15996 -0.0995,0.31995 -0.15451,0.50591 h 0.5209 c 1.32596,-3.90301 2.66536,-7.7938 3.95479,-11.70988 0.56518,-1.71926 0.99109,-3.49287 1.47227,-5.24619 0.0406,-0.13289 0.0662,-0.26611 0.12092,-0.46612 0.0726,0.11308 0.12957,0.18183 0.14934,0.25631 1.14817,4.36971 2.71769,8.60942 4.1429,12.89586 0.47335,1.42597 0.96115,2.84641 1.44539,4.27002 h 0.50953 c -0.0557,-0.19744 -0.10147,-0.35708 -0.14727,-0.51676 -0.60275,-1.78434 -1.21562,-3.55723 -1.80765,-5.34076 -1.42521,-4.28644 -2.99473,-8.52615 -4.1429,-12.89586 -0.0198,-0.0745 -0.0767,-0.14323 -0.14934,-0.25631 z m 24.35975,16.03468 c 0.004,11.05259 0.0376,22.41238 0.0946,22.59604 h 24.72511 v -1.5875 H 529.9806 c -0.054,-0.1741 -0.0874,-10.52115 -0.0946,-21.00854 z m -69.21179,1.52445 c -0.13963,0.10386 -0.24821,0.17937 -0.36019,0.26407 -1.12233,0.93582 -2.24433,1.87846 -3.3817,2.79518 -0.27122,0.21465 -0.36432,0.4521 -0.36432,0.79065 v 1.5875 c 0,-0.33855 0.0931,-0.576 0.36432,-0.79065 1.13737,-0.91672 2.25937,-1.85936 3.3817,-2.79518 0.11198,-0.0847 0.22056,-0.16021 0.36019,-0.26407 0.12107,0.15949 0.22329,0.29016 0.31729,0.43357 1.90783,2.80547 3.81715,5.60801 5.72368,8.40879 2.33947,3.45035 4.68245,6.8845 7.01714,10.31875 0.12973,0.19934 0.24893,0.35037 0.53641,0.35037 2.45819,-0.008 4.91391,-0.008 7.36905,-0.008 0.0813,0 0.16456,-0.0275 0.29404,-0.0574 -0.34425,-0.51102 -0.68686,-1.0185 -1.03094,-1.5291 -2.20975,7e-5 -4.41978,-4.8e-4 -6.63215,0.007 -0.28748,0 -0.40668,-0.15103 -0.53641,-0.35037 -2.33469,-3.43425 -4.67767,-6.8684 -7.01714,-10.31875 -1.90653,-2.80078 -3.81585,-5.60332 -5.72368,-8.40879 -0.094,-0.14341 -0.19622,-0.27408 -0.31729,-0.43357 z m 37.03236,7.52151 c -0.22436,-0.0275 -0.33316,0.086 -0.39946,0.30282 -0.16744,0.51955 -0.35164,1.04012 -0.53692,1.55753 -1.11375,3.21915 -2.22549,6.43003 -3.33623,9.64644 -0.0482,0.15163 -0.11161,0.29131 -0.16691,0.45424 l -0.0134,-0.002 h -6.66626 c -0.17039,0.46584 -0.34068,0.93202 -0.51108,1.39785 -0.023,0.0234 -0.0233,0.0675 -0.0233,0.0951 v 0.0455 c 0,0.0186 0.0234,0.0276 0.0274,0.0491 h 7.1732 l 0.0134,0.002 c 0.0553,-0.16293 0.11873,-0.30261 0.16691,-0.45424 1.11074,-3.21641 2.22248,-6.42729 3.33623,-9.64644 0.18528,-0.51741 0.36948,-1.03798 0.53692,-1.55753 0.0663,-0.21686 0.1751,-0.33028 0.39946,-0.30282 0.0726,0.008 0.15716,0 0.231,0 h 15.67914 c 1.41737,4.0026 2.82484,7.97614 4.22713,11.95017 h 7.34012 c -0.19429,-0.5306 -0.3866,-1.05704 -0.58084,-1.5875 h -6.75928 c -1.40229,-3.97403 -2.80976,-7.94757 -4.22713,-11.95017 h -15.67914 c -0.0738,0 -0.1584,0.008 -0.231,0 z m 68.59065,11.79101 c 0,0.0488 -0.0176,0.0873 -0.0403,0.15968 h -6.84764 v 1.5875 h 6.84764 c 0.0227,-0.0724 0.0403,-0.1109 0.0403,-0.15968 z M 456.568,447.59231 c -0.41259,0.10001 -6.32184,0.11952 -6.86522,0.0222 v 1.5875 c 0.54564,0.0977 6.51625,0.0779 6.88434,-0.0233 v -0.54777 l -0.0191,-0.004 z"/></g></svg>